<?xml version="1.0" standalone="no"?>
<!DOCTYPE svg PUBLIC "-//W3C//DTD SVG 20010904//EN"
 "http://www.w3.org/TR/2001/REC-SVG-20010904/DTD/svg10.dtd">
<svg version="1.0" xmlns="http://www.w3.org/2000/svg"
 width="84.000000pt" height="84.000000pt" viewBox="0 0 84.000000 84.000000"
 preserveAspectRatio="xMidYMid meet">

<defs>
  <linearGradient id="logoGradient" x1="0%" y1="0%" x2="100%" y2="100%">
    <stop offset="25%" stop-color="#ec4899" />    <!-- fuchsia-500 -->
    <stop offset="50%" stop-color="#f97316" />   <!-- orange-500 -->
    <stop offset="75%" stop-color="#f43f5e" />  <!-- rose-500 -->
  </linearGradient>
</defs>

<g transform="translate(0.000000,84.000000) scale(0.100000,-0.100000)"
fill="url(#logoGradient)" stroke="none">
<path d="M268 801 c-31 -3 -59 -8 -61 -11 -3 -3 -10 -36 -16 -74 -8 -52 -22
-89 -56 -149 l-46 -79 15 -144 c9 -79 16 -149 16 -154 0 -10 291 -160 312
-160 6 0 49 24 96 53 80 50 86 56 154 165 l71 113 -78 170 -78 170 -93 54
c-99 59 -105 60 -236 46z m216 -65 l93 -55 20 -118 c12 -65 20 -119 20 -119
-1 -1 -56 18 -122 43 l-120 44 -67 117 c-37 64 -66 118 -64 120 2 1 32 7 67
11 35 5 68 9 72 10 5 0 51 -23 101 -53z m-195 -109 l62 -108 -47 -102 c-38
-82 -57 -111 -100 -151 -30 -27 -56 -47 -58 -45 -2 2 -9 63 -16 134 l-12 130
45 79 c28 49 48 98 52 128 4 27 8 48 10 46 1 -2 30 -51 64 -111z m386 -161
l47 -104 -48 -78 -49 -79 -9 42 c-7 32 -4 54 13 105 18 55 20 71 11 123 -6 33
-13 68 -16 78 -13 42 7 9 51 -87z m-179 -7 c60 -22 112 -43 116 -45 4 -2 0
-26 -7 -52 -8 -26 -15 -83 -15 -127 l0 -80 -72 -47 c-40 -26 -75 -45 -79 -43
-3 3 -38 60 -78 129 l-71 124 20 46 c11 25 29 66 40 91 10 25 23 45 28 45 5 0
58 -18 118 -41z m-185 -232 c20 -34 49 -84 64 -110 l28 -49 -123 62 -124 62
55 49 c30 26 56 48 59 48 3 1 21 -27 41 -62z"/>
</g>
</svg>
